<?xml version="1.0" encoding="utf-8"?>
<!-- Generator: Adobe Illustrator 25.2.2, SVG Export Plug-In . SVG Version: 6.00 Build 0)  -->
<svg version="1.1"
	 id="svg2" xmlns:cc="http://creativecommons.org/ns#" xmlns:dc="http://purl.org/dc/elements/1.1/" xmlns:rdf="http://www.w3.org/1999/02/22-rdf-syntax-ns#" xmlns:svg="http://www.w3.org/2000/svg"
	 xmlns="http://www.w3.org/2000/svg" xmlns:xlink="http://www.w3.org/1999/xlink" x="0px" y="0px" viewBox="0 0 300 80"
	 style="enable-background:new 0 0 300 80;" xml:space="preserve">
<style type="text/css">
	.st0{fill:#004947;}
	.st1{fill:#770D29;}
	.st2{fill:#0064A4;}
</style>
<g id="g10" transform="matrix(1.25,0,0,-1.25,0,182.5)">
	<g id="g12">
		<g>
			<g id="g14">
				<g id="g20" transform="translate(156.6802,29.3511)">
					<path id="path22" class="st0" d="M-68,58.8l2-4.7h0.7l2.2,4.7c0.3,0.5,0.4,0.7,0.7,0.7v0.2h-2.1v-0.2c0.1,0,0.5-0.1,0.5-0.5
						c0-0.1-0.1-0.4-0.1-0.5l-1.2-2.6l-1.1,2.7c0,0.1-0.1,0.3-0.1,0.4c0,0.4,0.3,0.4,0.5,0.5v0.2h-2.7v-0.2
						C-68.4,59.5-68.3,59.3-68,58.8"/>
				</g>
				<g id="g24" transform="translate(122.6284,21.9106)">
					<path id="path26" class="st0" d="M-54.1,61.9c-0.5,0.1-0.7,0.2-0.7,1v5.6l6-6.9h0.7V69c0,0.7,0.1,0.9,0.7,1v0.2h-2.4V70
						c0.7-0.1,0.7-0.4,0.7-1.1v-4.6l-5,5.9h-2.4V70c0.2,0,0.5-0.1,0.7-0.4c0.1-0.2,0.1-0.3,0.1-0.6v-6.1c0-0.4,0-0.7-0.2-0.8
						c-0.2-0.2-0.3-0.2-0.5-0.2v-0.2h2.4V61.9"/>
				</g>
				<g id="g28" transform="translate(137.3994,29.231)">
					<path id="path30" class="st0" d="M-60.1,58.9c0.2,0.3,0.5,0.5,1,0.5c0.4,0,0.7-0.2,0.9-0.4c0.3-0.3,0.6-1.1,0.6-2
						c0-0.4,0-1.6-0.8-2c-0.2-0.1-0.4-0.1-0.6-0.1c-1.1,0-1.5,1.3-1.5,2.4C-60.6,57.9-60.4,58.5-60.1,58.9 M-61.4,55
						c0.7-0.7,1.5-0.8,2.2-0.8c2.2,0,3.1,1.6,3.1,3c0,1.5-1,2.9-3,2.9c-1.9,0-3.1-1.4-3.1-3C-62.2,56.3-61.9,55.5-61.4,55"/>
				</g>
				<g id="g32" transform="translate(145.4053,28.4517)">
					<path id="path34" class="st0" d="M-63.4,59.2v-2.1c0-0.4,0-1,0.4-1.4c0.2-0.2,0.6-0.7,1.6-0.7c1,0,1.7,0.5,2.1,1.1
						c0.1-0.3,0.2-0.7,0.8-1.1l1.3,1l-0.1,0.1c-0.6,0.1-0.6,0.6-0.6,1.2v3.7l-2.2-0.4v-0.2c0.6-0.1,0.7-0.3,0.7-0.9v-1.9
						c0-0.3,0-0.6-0.3-0.9c-0.2-0.3-0.6-0.4-1.1-0.4c-0.6,0-0.9,0.3-1.1,0.7c-0.1,0.2-0.1,0.4-0.1,0.7v3.5l-2.2-0.4v-0.2
						C-63.5,60.1-63.4,59.8-63.4,59.2"/>
				</g>
				<g id="g36" transform="translate(168.3105,29.21)">
					<path id="path38" class="st0" d="M-72.8,58.9c0.4,0.5,0.9,0.5,1.1,0.5c0.3,0,0.7,0,1.1-0.5c0.2-0.3,0.2-0.6,0.3-0.9h-2.8
						C-73.1,58.3-73.1,58.6-72.8,58.9 M-71.7,54.2c1.5,0,2.1,0.9,2.6,1.9l-0.2,0.1c-0.3-0.3-0.9-0.8-2-0.8c-0.6,0-1.5,0.2-1.8,1.1
						c-0.1,0.3-0.1,0.6-0.1,0.8h4.3c0,0.6-0.1,1.1-0.4,1.6c-0.7,1.1-1.7,1.1-2.3,1.1c-2,0-3-1.5-3-3C-74.6,55.7-73.7,54.2-71.7,54.2
						"/>
				</g>
				<g id="g40" transform="translate(179.6333,25.999)">
					<path id="path42" class="st0" d="M-77.5,60.2c0.4,0.1,0.5,0.2,0.9,0.4v-1.5c-0.5-0.6-1.1-0.7-1.2-0.7c-0.4,0-0.8,0.3-0.8,0.7
						C-78.5,59.8-77.8,60.1-77.5,60.2 M-78.3,57.4c1,0,1.4,0.5,1.8,0.9c0.1-0.4,0.3-0.7,0.7-0.9l1.4,1l-0.1,0.1
						c-0.6,0.3-0.6,0.5-0.6,1.2v1.3c0,0.6,0,1.1-0.3,1.5c-0.5,0.7-1.4,0.7-1.8,0.7c-0.5,0-1.2-0.1-2.1-0.4l-0.2-1.3h0.2
						c0.2,0.2,0.3,0.4,0.7,0.6c0.3,0.2,0.7,0.3,1.1,0.3c0.4,0,0.7-0.1,0.9-0.4c0.1-0.1,0.1-0.3,0.1-0.4c0-0.6-0.6-0.8-1.2-0.9
						l-0.4-0.1c-0.6-0.1-1.9-0.5-1.9-1.7C-80,58.3-79.6,57.4-78.3,57.4"/>
				</g>
				<g id="g44" transform="translate(185.6357,28.4517)">
					<path id="path46" class="st0" d="M-79.9,59.2v-2.1c0-0.4,0-1,0.4-1.4c0.2-0.2,0.6-0.7,1.6-0.7c1,0,1.7,0.5,2.1,1.1
						c0.1-0.3,0.2-0.7,0.8-1.1l1.3,1l-0.1,0.1c-0.6,0.1-0.6,0.6-0.6,1.2v3.7l-2.2-0.4v-0.2c0.6-0.1,0.7-0.3,0.7-0.9v-1.9
						c0-0.3,0-0.6-0.3-0.9c-0.2-0.3-0.6-0.4-1-0.4c-0.6,0-0.9,0.3-1.1,0.7c-0.1,0.2-0.1,0.4-0.1,0.7v3.5l-2.2-0.4v-0.2
						C-80,60.1-79.9,59.8-79.9,59.2"/>
				</g>
			</g>
		</g>
	</g>
	<g id="g48">
		<g>
			<g id="g50">
				<g id="g56" transform="translate(103.7432,65.8354)">
					<path id="path58" class="st1" d="M-46.4,43.9c-3.4,5.2-7.2,6.1-7.2,6.1c-9.7,2.6-25.3-10.4-25.3-10.4
						C-58,64.3-65.5,71.3-65.5,71.3c15.7,0,22.1-8.3,22.1-8.3C-41.4,57-43.7,50.1-46.4,43.9 M-41.7,64.3c0,0-3.4,4.5-11.5,7.7
						c-0.4,2.8-1.1,5.2-2,7.4c0.4-1.9,0.5-4.6,0.3-6.8c-4.9,1.7-11.3,2.9-19.5,2.4c0,0,17.5-8.2-17.9-46.6c0,0,29,19.9,38.7,17.3
						c0,0,4.2-0.6,8.4-7.7C-37.3,52.6-41.7,64.3-41.7,64.3"/>
				</g>
				<g id="g60" transform="translate(54.9766,34.7866)">
					<path id="path62" class="st2" d="M-26.4,56.6c-10.6-0.5-25.4-8.3-25.4-8.3s8.2,3.7,17.1,5c-0.8-0.8-1.1-1.7-0.9-2.6
						c0.5-2.2,5.2-3.6,9.4-2.7c1.2,0.2,2.2,0.7,3.2,1.1c-0.9-0.3-7.7,0-7.6,2.6c0.1,2,4.6,3,7.9,1.8c2.8-1,4.8-4.6,4-6.2
						c0.2,0.2,0.3,0.5,0.4,0.7C-16.9,50.8-18,57-26.4,56.6"/>
				</g>
			</g>
		</g>
	</g>
	<g id="g64">
		<g>
			<g id="g66">
				<g id="g72" transform="translate(112.8174,30.6787)">
					<path id="path74" class="st2" d="M-50.1,58.3c-0.4,2.2-4.1,3.3-8.3,2.5c-1.8-0.3-3.3-1.1-4.6-1.8c-2.9-1.7-7-5.3-7-5.3
						c1,0.7,2.3,1.4,3.6,2c1.7,0.8,9.9,4,10.8,1.3c0.4-1.2-1.1-2.9-5.3-3.5c-1.1-0.1-2.6-0.1-3.3,0.3c1.5-1.1,4.3-1.6,7.3-1
						C-52.7,53.6-49.7,56.1-50.1,58.3"/>
				</g>
			</g>
		</g>
	</g>
	<g id="g76">
		<g>
			<g id="g78">
				<g id="g84" transform="translate(9,22.1548)">
					<path id="path86" class="st1" d="M-7.5,61.8c0,0,33.3,17.4,49.8,14.9c-6.5-9.7-13.7-16.8-13.7-16.8c10.5,7,16.9,14.2,20.7,20.9
						C28.6,89-7.5,61.8-7.5,61.8"/>
				</g>
				<g id="g88" transform="translate(86.6318,124.7588)">
					<path id="path90" class="st1" d="M-39.3,19.7c-9.2,1.3-14.3-1.5-14.9-1.8c9.6-0.3,11.6-1.3,14.9-2.1
						C-39,17.1-39.3,19.7-39.3,19.7"/>
				</g>
			</g>
		</g>
	</g>
	<g id="g92">
		<g>
			<g id="g94">
				<g id="g100" transform="translate(218.8379,26.0767)">
					<path id="path102" class="st0" d="M-93.5,60.2c-0.8-0.6-2.1-0.8-3.1-0.8c-1.9,0-1.9,1.1-1.9,2.4v4.5h1.8c0.8,0,1.9,0,2.9-0.6
						c0.5-0.3,1.5-1.2,1.5-2.9C-92.4,61.5-92.9,60.6-93.5,60.2 M-98.5,74.2h1.1c1.1,0,1.9,0,2.7-0.3c1.1-0.5,1.5-1.4,1.5-2.6
						c0-2.4-2.1-2.9-3.9-2.9h-1.4C-98.5,68.3-98.5,74.2-98.5,74.2z M-93.3,67.6c2,0.5,3.8,1.7,3.8,4.2c0,1.6-0.7,3.1-2.5,3.9
						c-1,0.4-2.3,0.5-3.9,0.5h-7.8v-0.4c1.6-0.2,1.6-1.1,1.6-2.5v-13c0-1.5-0.2-2.1-1.6-2.4v-0.4h8c1.4,0,3.3,0,4.8,1
						c1.2,0.7,2.4,2.2,2.4,4.2C-88.6,65.6-90.8,67-93.3,67.6"/>
				</g>
				<g id="g104" transform="translate(235.2314,39.1597)">
					<path id="path106" class="st0" d="M-100.2,54.8v2.3l-5.1-2.7l0.1-0.3c1.7,0,1.7-1.3,1.7-2.6v-3.9c0-0.5,0-1.2-0.2-1.7
						c-0.3-0.8-1-1-1.3-1.1v-0.4h6.4v0.4c-1.5,0.5-1.6,0.8-1.6,2.8v3.6c0,0.6,0,1.4,0.5,2.1c0.5,0.7,1.2,1.1,2.1,1.1
						c1.2,0,1.6-0.7,2-1.3h0.3l0.6,3.5c-0.3,0.1-0.8,0.3-1.5,0.3C-98.4,56.9-99.4,55.7-100.2,54.8"/>
				</g>
				<g id="g108" transform="translate(268.1924,29.0361)">
					<path id="path110" class="st0" d="M-113.8,58.9v8l-4.9-1v-0.4c1.3-0.2,1.6-0.7,1.6-2v-4.3c0-0.6,0-1.3-0.6-2.1
						c-0.5-0.6-1.3-1-2.3-1c-1.2,0-2,0.6-2.4,1.6c-0.1,0.4-0.2,0.8-0.2,1.4V67l-4.8-1v-0.4c1.4-0.2,1.5-0.9,1.5-2.3v-4.6
						c0-1,0.1-2.1,0.8-3.1c0.3-0.4,1.3-1.5,3.5-1.5c2.1,0,3.7,1.1,4.6,2.4c0.2-0.7,0.5-1.5,1.7-2.4l2.9,2.2l-0.2,0.3
						C-113.8,56.7-113.8,57.6-113.8,58.9"/>
				</g>
				<g id="g112" transform="translate(294.3545,26.6592)">
					<path id="path114" class="st0" d="M-124.5,59.9v4.5c0,1.2,0,2.4-0.8,3.4c-0.6,0.8-1.7,1.5-3.5,1.5c-2.3,0-3.6-1.2-4.5-2.1v2.3
						l-5.1-2.7l0.2-0.3c1.6-0.1,1.6-0.9,1.6-2.6v-4c0-1.3,0-2.5-1.6-2.7v-0.4h6.4l0,0.4c-1.4,0.4-1.5,1-1.5,2.4v4.5
						c0,0.6,0,1.5,1,2.2c0.4,0.3,1,0.6,1.9,0.6c2.6,0,2.6-2.2,2.6-2.8v-4.5c0-1.4,0-2.1-1.5-2.4v-0.4h6.3v0.4
						C-124.5,57.5-124.5,58.3-124.5,59.9"/>
				</g>
				<g id="g116" transform="translate(308.8662,33.2466)">
					<path id="path118" class="st0" d="M-130.4,57.2l-1,0.5c-0.8,0.4-1.9,0.9-1.9,1.9c0,0.9,0.8,1.6,2,1.6c1.9,0,2.3-1.3,2.5-2h0.4
						v2.9c-0.6,0.2-1.7,0.6-3.4,0.6c-3,0-4.7-1.7-4.7-3.7c0-1.9,1.3-2.6,2.1-3l1.1-0.5c0.9-0.5,2.1-1.1,2.1-2.2
						c0-1.3-1.2-1.8-2.3-1.8c-2,0-2.5,1.4-2.7,2.1h-0.4v-3.1c1-0.3,1.9-0.6,3.6-0.6c2.1,0,3.3,0.7,3.8,1.2c0.8,0.7,1.3,1.8,1.3,2.9
						C-128,56.1-129.8,56.9-130.4,57.2"/>
				</g>
				<g id="g120" transform="translate(350.8125,41.8481)">
					<path id="path122" class="st0" d="M-147.6,53.7h-4.7v-0.4c0.3-0.1,1.1-0.2,1.1-1.1c0-0.3-0.1-0.6-0.3-0.9l-2.6-5.8l-2.4,5.8
						c-0.1,0.3-0.2,0.6-0.2,0.9c0,0.9,0.7,1.1,1.1,1.2v0.4h-6.1v-0.4c0.7-0.1,1-0.3,1.4-1.2l0.6-1.3l-2.4-5.4l-2.4,5.7
						c-0.1,0.3-0.2,0.6-0.2,1c0,0.7,0.4,1.1,1.1,1.2v0.4h-6.1v-0.4c1-0.3,1.1-0.6,1.7-1.9l4.3-10h1.6l3.4,7.2l3.2-7.2h1.6l4.7,10
						c0.6,1.2,0.7,1.6,1.7,1.9V53.7"/>
				</g>
				<g id="g124" transform="translate(359.1289,26.3037)">
					<path id="path126" class="st0" d="M-151,60.1v9.9l-5.1-2.5l0.2-0.3c1.6,0.1,1.6-0.6,1.6-2v-4.9c0-1.5,0-2.1-1.6-2.6v-0.4h6.5
						v0.4C-150.8,57.9-151,58.3-151,60.1"/>
				</g>
				<g id="g128" transform="translate(380.5117,28.228)">
					<path id="path130" class="st0" d="M-159.8,59.3c-0.8-0.8-1.9-1.9-3.9-1.9c-3.1,0-4.2,2.6-4.2,4.6c0,2.1,1.1,4.2,3.6,4.2
						c2.4,0,3-1.7,3.4-2.8h0.4l0.6,3c-0.6,0.4-2,1.3-4.4,1.3c-4,0-6.6-3-6.6-6.8c0-2.6,1.5-6.1,5.8-6.1c2,0,4,0.7,5.6,4.2
						L-159.8,59.3"/>
				</g>
				<g id="g132" transform="translate(403.0879,24.644)">
					<path id="path134" class="st0" d="M-169,60.7l-5,5.3l3.7,3.3c1,0.9,1.1,0.9,1.8,1.2v0.4h-5.2v-0.4c0.2-0.1,0.7-0.2,0.7-0.6
						c0-0.3-0.2-0.6-0.7-1.1l-3.7-3.3v12.3l-5.1-2.6l0.2-0.3c0.2,0.1,0.3,0.1,0.5,0.1c1.1,0,1.2-1,1.2-2.1V61.4
						c0-1.1-0.1-1.9-1.5-2.1v-0.4h6.3v0.4c-1.5,0.3-1.5,1.1-1.5,2.4v3.5l4.1-4.3c1.3-1.4,1.8-1.8,4.1-1.9h1.9v0.4
						C-168,59.6-168.5,60.2-169,60.7"/>
				</g>
				<g id="g136" transform="translate(179.5449,45.7031)">
					<path id="path138" class="st0" d="M-77.4,52.1l2-4.6h0.7l1.6,3.3l1.5-3.3h0.7l2.2,4.6c0.3,0.5,0.3,0.7,0.8,0.9v0.2h-2.2V53
						c0.1,0,0.5-0.1,0.5-0.5c0-0.1-0.1-0.3-0.1-0.4l-1.2-2.7l-1.1,2.7c0,0.1-0.1,0.3-0.1,0.4c0,0.4,0.3,0.5,0.5,0.5v0.2h-2.8V53
						c0.3-0.1,0.5-0.1,0.7-0.5l0.3-0.6l-1.1-2.5l-1.1,2.7c0,0.1-0.1,0.3-0.1,0.4c0,0.3,0.2,0.5,0.5,0.5v0.2h-2.8V53
						C-77.8,52.8-77.7,52.7-77.4,52.1"/>
				</g>
				<g id="g140" transform="translate(157.1074,38.334)">
					<path id="path142" class="st0" d="M-68.2,55.1c-0.5,0.1-0.7,0.2-0.7,1.1v5.7l6.1-7.1h0.7v7.5c0,0.7,0.1,0.9,0.7,1.1v0.2h-2.4
						v-0.2c0.7-0.1,0.8-0.4,0.8-1.1v-4.7l-5.1,6h-2.4v-0.2c0.2,0,0.5-0.1,0.7-0.4c0.1-0.2,0.1-0.4,0.1-0.6v-6.2c0-0.4,0-0.7-0.2-0.9
						c-0.2-0.2-0.3-0.2-0.5-0.2V55h2.4V55.1"/>
				</g>
				<g id="g144" transform="translate(171.8311,45.7607)">
					<path id="path146" class="st0" d="M-74.3,52.1c0.4,0.5,0.9,0.5,1.1,0.5c0.3,0,0.8,0,1.1-0.5c0.2-0.3,0.2-0.6,0.3-0.9h-2.9
						C-74.6,51.5-74.5,51.8-74.3,52.1 M-73.1,47.3c1.6,0,2.2,0.9,2.7,1.9l-0.2,0.1c-0.3-0.3-0.9-0.9-2.1-0.9c-0.6,0-1.5,0.2-1.9,1.2
						c-0.1,0.3-0.1,0.6-0.1,0.8h4.4c0,0.6-0.1,1.2-0.5,1.6c-0.7,1.1-1.8,1.2-2.3,1.2c-2,0-3-1.5-3-3C-76.1,48.8-75.1,47.3-73.1,47.3
						"/>
				</g>
				<g id="g148" transform="translate(120.8564,79.1396)">
					<path id="path150" class="st0" d="M-53.4,38.4c1.1-6,5.3-8.8,11.2-8.8c3.2,0,7.9,0.9,7.9,5c0,3.3-3.4,4.2-5.9,4.9l-3.9,1.1
						c-5.6,1.6-11.2,4-11.2,10.5c0,8.5,8.2,11.1,16.4,11.1c3.4,0,7-0.6,10.2-1.8c0-3.9,0.2-7.3,0.4-10.1h-1c-1.2,5-5.6,7.4-10.5,7.4
						c-2.7,0-7.3-0.9-7.3-4.7c0-3,2.6-3.9,4.9-4.5l5.7-1.6c5.5-1.6,10.7-3.6,10.7-10.7c0-7.2-7.3-11.1-16.2-11.1
						c-4,0-8.2,0.7-11.9,2c0,4.3-0.2,8.1-0.4,11.3H-53.4"/>
				</g>
				<g id="g152" transform="translate(183.3569,93.1235)">
					<path id="path154" class="st0" d="M-79,32.7c1.7,2.2,3.9,2.3,4.9,2.3c1.2,0,3.4-0.2,4.8-2.4c0.9-1.3,1-2.5,1.1-3.8h-12.7
						C-80.5,30-80.1,31.4-79,32.7 M-73.9,11.7c6.9,0,9.6,3.9,11.8,8.4l-0.8,0.5c-1.4-1.3-4-3.8-9.2-3.8c-2.7,0-6.7,0.8-8.2,5.1
						c-0.5,1.5-0.6,2.6-0.6,3.7h19.4c-0.2,2.5-0.7,5.1-2,7.2c-2.9,4.8-7.8,5.1-10.1,5.1c-8.8,0-13.3-6.7-13.3-13.3
						C-86.9,18.4-82.8,11.7-73.9,11.7"/>
				</g>
				<g id="g156" transform="translate(376.2119,93.1235)">
					<path id="path158" class="st0" d="M-158,32.7c1.7,2.2,3.9,2.3,4.9,2.3c1.2,0,3.4-0.2,4.8-2.4c0.9-1.3,1-2.5,1.1-3.8h-12.7
						C-159.5,30-159.1,31.4-158,32.7 M-153,11.7c6.9,0,9.6,3.9,11.8,8.4l-0.8,0.5c-1.4-1.3-4-3.8-9.2-3.8c-2.7,0-6.7,0.8-8.2,5.1
						c-0.5,1.5-0.6,2.6-0.6,3.7h19.4c-0.2,2.5-0.7,5.1-2,7.2c-2.9,4.8-7.8,5.1-10.1,5.1c-8.8,0-13.3-6.7-13.3-13.3
						C-165.9,18.4-161.9,11.7-153,11.7"/>
				</g>
				<g id="g160" transform="translate(231.5293,93.9673)">
					<path id="path162" class="st0" d="M-98.7,32.3v4.5l-10.2-5.3l0.3-0.6c3.3,0,3.4-2.6,3.4-5.3v-7.8c0-1-0.1-2.4-0.4-3.4
						c-0.7-1.5-1.9-2-2.7-2.2v-0.7h12.9v0.7c-2.9,1.1-3.2,1.7-3.2,5.6v7.2c0,1.3,0,2.8,1.1,4.3c1,1.3,2.4,2.1,4.1,2.1
						c2.3,0,3.3-1.5,3.9-2.6h0.6l1.1,7.1c-0.6,0.2-1.6,0.6-3.1,0.6C-95,36.6-97.1,34.2-98.7,32.3"/>
				</g>
				<g id="g164" transform="translate(258.0566,92.043)">
					<path id="path166" class="st0" d="M-109.6,33.1l8.8-20.3h3.2l9.5,20.3c1.1,2.4,1.5,3.2,3.6,3.9v0.8h-9.6V37
						c0.6-0.1,2.3-0.4,2.3-2.3c0-0.6-0.3-1.2-0.5-1.9L-97.6,21l-4.8,11.7c-0.2,0.5-0.5,1.2-0.5,1.9c0,1.4,0.8,2.1,2.2,2.4v0.8h-12.5
						V37C-111.1,36.3-110.8,35.9-109.6,33.1"/>
				</g>
				<g id="g168" transform="translate(317.6992,68.1182)">
					<path id="path170" class="st0" d="M-134,42.9v19.8l-10.2-5l0.3-0.6c3.1,0.2,3.3-1.3,3.3-4v-9.9c0-3,0-4.3-3.2-5.3v-0.7h13.1V38
						C-133.6,38.7-134,39.4-134,42.9"/>
				</g>
				<g id="g172" transform="translate(317.7324,111.6587)">
					<path id="path174" class="st0" d="M-134.1,25.1c0-2.1-1.7-3.8-3.8-3.8c-2.1,0-3.8,1.7-3.8,3.8c0,2.1,1.7,3.8,3.8,3.8
						C-135.7,28.8-134.1,27.2-134.1,25.1"/>
				</g>
				<g id="g176" transform="translate(359.166,48.0151)">
					<path id="path178" class="st0" d="M-151,51.2c0-1-0.8-1.9-1.9-1.9c-1,0-1.9,0.8-1.9,1.9s0.8,1.9,1.9,1.9
						C-151.9,53-151,52.2-151,51.2"/>
				</g>
				<g id="g180" transform="translate(359.7393,72.4844)">
					<path id="path182" class="st0" d="M-151.3,41.1c-1.6-1.6-3.8-3.8-8-3.8c-6.4,0-8.6,5.4-8.6,9.5c0,4.4,2.2,8.8,7.5,8.8
						c4.9,0,6.2-3.5,7-5.9h0.8l1.3,6.3c-1.2,0.8-4.2,2.8-9.1,2.8c-8.3,0-13.7-6.3-13.7-14.1c0-5.5,3.2-12.7,12.1-12.7
						c4.2,0,8.4,1.5,11.5,8.7L-151.3,41.1"/>
				</g>
			</g>
		</g>
	</g>
</g>
</svg>
