<svg width="60" height="60" viewBox="0 0 60 60" fill="none" xmlns="http://www.w3.org/2000/svg">
<circle cx="30" cy="30" r="30" fill="#EFB300"/>
<path d="M54.375 30C54.375 36.4647 51.8069 42.6645 47.2357 47.2357C42.6645 51.8069 36.4647 54.375 30 54.375C23.5353 54.375 17.3355 51.8069 12.7643 47.2357C8.19307 42.6645 5.625 36.4647 5.625 30C5.625 23.5353 8.19307 17.3355 12.7643 12.7643C17.3355 8.19307 23.5353 5.625 30 5.625C36.4647 5.625 42.6645 8.19307 47.2357 12.7643C51.8069 17.3355 54.375 23.5353 54.375 30ZM30 0C22.0435 0 14.4129 3.16071 8.7868 8.7868C3.16071 14.4129 0 22.0435 0 30C0 37.9565 3.16071 45.5871 8.7868 51.2132C14.4129 56.8393 22.0435 60 30 60C37.9565 60 45.5871 56.8393 51.2132 51.2132C56.8393 45.5871 60 37.9565 60 30C60 22.0435 56.8393 14.4129 51.2132 8.7868C45.5871 3.16071 37.9565 0 30 0ZM20.6719 28.125C21.6664 28.125 22.6203 27.7299 23.3235 27.0266C24.0268 26.3234 24.4219 25.3696 24.4219 24.375C24.4219 23.3804 24.0268 22.4266 23.3235 21.7234C22.6203 21.0201 21.6664 20.625 20.6719 20.625C19.6773 20.625 18.7235 21.0201 18.0202 21.7234C17.317 22.4266 16.9219 23.3804 16.9219 24.375C16.9219 25.3696 17.317 26.3234 18.0202 27.0266C18.7235 27.7299 19.6773 28.125 20.6719 28.125ZM43.1719 24.375C43.1719 23.3804 42.7768 22.4266 42.0735 21.7234C41.3703 21.0201 40.4164 20.625 39.4219 20.625C38.4273 20.625 37.4735 21.0201 36.7702 21.7234C36.067 22.4266 35.6719 23.3804 35.6719 24.375C35.6719 25.3696 36.067 26.3234 36.7702 27.0266C37.4735 27.7299 38.4273 28.125 39.4219 28.125C40.4164 28.125 41.3703 27.7299 42.0735 27.0266C42.7768 26.3234 43.1719 25.3696 43.1719 24.375ZM21.5625 38.4375C20.0039 38.4375 18.75 39.6914 18.75 41.25C18.75 42.8086 20.0039 44.0625 21.5625 44.0625H38.4375C39.9961 44.0625 41.25 42.8086 41.25 41.25C41.25 39.6914 39.9961 38.4375 38.4375 38.4375H21.5625Z" fill="black"/>
</svg>
