<svg width="60" height="60" viewBox="0 0 60 60" fill="none" xmlns="http://www.w3.org/2000/svg">
<circle cx="30" cy="30" r="30" fill="#EFB300"/>
<path d="M54.375 30C54.375 23.5353 51.8069 17.3355 47.2357 12.7643C42.6645 8.19307 36.4647 5.625 30 5.625C23.5353 5.625 17.3355 8.19307 12.7643 12.7643C8.19307 17.3355 5.625 23.5353 5.625 30C5.625 36.4647 8.19307 42.6645 12.7643 47.2357C17.3355 51.8069 23.5353 54.375 30 54.375C36.4647 54.375 42.6645 51.8069 47.2357 47.2357C51.8069 42.6645 54.375 36.4647 54.375 30ZM0 30C0 22.0435 3.16071 14.4129 8.7868 8.7868C14.4129 3.16071 22.0435 0 30 0C37.9565 0 45.5871 3.16071 51.2132 8.7868C56.8393 14.4129 60 22.0435 60 30C60 37.9565 56.8393 45.5871 51.2132 51.2132C45.5871 56.8393 37.9565 60 30 60C22.0435 60 14.4129 56.8393 8.7868 51.2132C3.16071 45.5871 0 37.9565 0 30ZM20.6836 37.5352C22.9805 35.4023 26.2266 33.75 30 33.75C33.7734 33.75 37.0195 35.4023 39.3164 37.5352C41.543 39.6211 43.125 42.4219 43.125 45C43.125 45.6328 42.8086 46.2188 42.2812 46.5703C41.7539 46.9219 41.0859 46.9688 40.5 46.7227L38.4844 45.8438C35.8125 44.6719 32.918 44.0742 30 44.0742C27.082 44.0742 24.1875 44.6836 21.5156 45.8438L19.5 46.7227C18.9258 46.9805 18.2461 46.9219 17.7188 46.5703C17.1914 46.2188 16.875 45.6328 16.875 45C16.875 42.4219 18.457 39.6211 20.6836 37.5352ZM15.6445 17.1914L26.1797 22.8047C27.4336 23.4727 27.4336 25.2773 26.1797 25.9453L15.6445 31.5586C14.7188 32.0508 13.5938 31.3828 13.5938 30.3281C13.5938 30 13.7109 29.6836 13.9219 29.4375L18.1406 24.375L13.9219 19.3125C13.7109 19.0664 13.5938 18.75 13.5938 18.4219C13.5938 17.3672 14.7188 16.6992 15.6445 17.1914ZM46.4062 18.4102C46.4062 18.7383 46.2891 19.0547 46.0781 19.3008L41.8594 24.3633L46.0781 29.4258C46.2891 29.6719 46.4062 29.9883 46.4062 30.3164C46.4062 31.3711 45.2812 32.0391 44.3555 31.5469L33.8203 25.9336C32.5664 25.2656 32.5664 23.4609 33.8203 22.793L44.3555 17.1797C45.2812 16.6875 46.4062 17.3555 46.4062 18.4102Z" fill="black"/>
</svg>
