<svg version="1.1" id="Layer_1" xmlns="http://www.w3.org/2000/svg" xmlns:xlink="http://www.w3.org/1999/xlink" x="0px" y="0px"
	 viewBox="0 0 309.13 114.38" style="enable-background:new 0 0 309.13 114.38;" xml:space="preserve">
<style>
	.st0{fill:none;}
	.st1{fill:#034239;}
	.st2{fill:#215D93;}
	.st3{fill:#6B1E0E;}
</style>
<g>
	<g>
		<path class="st0" d="M236.39,63.23c-0.75-1.1-1.82-1.21-2.46-1.21c-0.5,0-1.63,0.06-2.51,1.16c-0.56,0.66-0.75,1.38-0.91,2.01
			h6.46C236.91,64.5,236.83,63.89,236.39,63.23z"/>
		<path class="st0" d="M246.01,71.59c0.3,0,1.54-0.11,2.75-1.54v-3.53c-0.83,0.55-1.07,0.66-2.07,0.99
			c-0.72,0.25-2.46,0.83-2.46,2.4C244.24,70.85,244.99,71.59,246.01,71.59z"/>
		<path class="st0" d="M26.89,74.45c0-3.18-1.15-5.55-3.86-6.77c-1.89-0.81-4.06-0.88-6.84-0.88h-2.84v15.1h3.59
			C21.54,81.9,26.89,80.55,26.89,74.45z"/>
		<path class="st0" d="M70.81,63.23c-0.74-1.1-1.82-1.21-2.45-1.21c-0.5,0-1.63,0.06-2.51,1.16c-0.55,0.66-0.75,1.38-0.91,2.01h6.45
			C71.33,64.5,71.25,63.89,70.81,63.23z"/>
		<path class="st0" d="M192.28,72.31c0.44,0,0.91-0.11,1.3-0.33c1.65-0.99,1.74-3.64,1.74-4.58c0-2.04-0.61-3.7-1.32-4.47
			c-0.5-0.52-1.24-0.91-2.07-0.91c-0.99,0-1.77,0.55-2.21,1.13c-0.66,0.86-0.97,2.21-0.97,3.64
			C188.75,69.24,189.74,72.31,192.28,72.31z"/>
		<path class="st0" d="M25.4,88.61c-2.51-1.56-5.21-1.62-7.38-1.62h-4.67v11.64c0,3.32,0.07,6.03,4.81,6.03
			c2.71,0,5.96-0.4,8.06-1.96c1.49-1.15,2.98-3.32,2.98-6.64C29.19,91.59,26.68,89.42,25.4,88.61z"/>
		<path class="st1" d="M215.73,62.98l4.55,10.7h1.66l4.94-10.7c0.58-1.22,0.83-1.57,1.68-1.68v-0.41h-4.86v0.41
			c0.33,0.03,1.16,0.14,1.16,1.08c0,0.33-0.19,0.86-0.28,1.08l-2.65,6.04l-2.46-6.23c-0.11-0.27-0.25-0.63-0.25-0.91
			c0-0.85,0.75-0.99,1.05-1.05v-0.41h-6.29v0.41C214.85,61.41,215.26,61.91,215.73,62.98z"/>
		<path class="st1" d="M26.75,83.73c5.15-1.36,9.69-4.33,9.69-10.7c0-4-1.76-8.06-6.44-9.96c-2.64-1.08-5.89-1.29-10.09-1.29H0v1.02
			c4.13,0.54,4.13,2.91,4.13,6.43v33.18c0,3.72-0.47,5.49-4.13,6.17v1.01h20.45c3.66,0,8.33,0,12.33-2.44
			c3.12-1.9,6.03-5.55,6.03-10.84C38.81,88.88,33.25,85.08,26.75,83.73z M13.34,66.8h2.84c2.78,0,4.95,0.06,6.84,0.88
			c2.71,1.22,3.86,3.59,3.86,6.77c0,6.1-5.35,7.45-9.96,7.45h-3.59V66.8z M26.21,102.69c-2.1,1.56-5.35,1.96-8.06,1.96
			c-4.74,0-4.81-2.71-4.81-6.03V86.98h4.67c2.17,0,4.88,0.07,7.38,1.62c1.29,0.81,3.79,2.98,3.79,7.45
			C29.19,99.37,27.7,101.54,26.21,102.69z"/>
		<path class="st1" d="M50.99,82.92v-5.82l-13.07,6.84l0.34,0.75c4.27,0,4.33,3.32,4.33,6.77v10.02c0,1.29-0.07,3.11-0.54,4.34
			c-0.88,1.96-2.44,2.5-3.46,2.84v0.95h16.52v-0.95c-3.72-1.35-4.13-2.17-4.13-7.18V92.2c0-1.62,0-3.59,1.35-5.49
			c1.22-1.69,3.05-2.71,5.28-2.71c2.98,0,4.2,1.9,5.01,3.32h0.81l1.42-9.08c-0.75-0.27-2.03-0.74-3.93-0.74
			C55.8,77.5,53.09,80.55,50.99,82.92z"/>
		<path class="st1" d="M100.81,98.22V77.7l-12.46,2.51v0.95c3.32,0.47,4,1.76,4,5.01v10.91c0,1.42-0.07,3.45-1.62,5.28
			c-1.22,1.42-3.25,2.44-5.89,2.44c-3.12,0-5.21-1.56-6.03-4.06c-0.34-1.09-0.47-2.17-0.47-3.66V77.7l-12.26,2.51v0.95
			c3.46,0.47,3.79,2.24,3.79,5.83v11.85c0,2.51,0.13,5.49,2.17,8.06c0.88,1.15,3.39,3.86,9.01,3.86c5.49,0,9.48-2.91,11.78-6.03
			c0.48,1.9,1.35,3.93,4.47,6.23l7.45-5.55l-0.41-0.68C100.81,104.05,100.81,101.54,100.81,98.22z"/>
		<path class="st1" d="M140.36,101.81V90.16c0-2.98-0.07-6.03-2.1-8.6c-1.49-1.96-4.47-3.86-8.87-3.86c-5.82,0-9.21,3.18-11.45,5.28
			v-5.89l-13.14,6.84l0.47,0.81c4.13,0.14,4.2,2.3,4.2,6.64v10.29c0,3.39-0.07,6.37-4.06,6.98v0.95h16.39l-0.07-0.95
			c-3.66-1.02-3.79-2.51-3.79-6.16V90.91c0-1.63,0.07-3.93,2.44-5.76c1.08-0.81,2.64-1.49,4.81-1.49c6.64,0,6.71,5.55,6.71,7.25
			v11.58c0,3.52-0.07,5.35-3.73,6.16v0.95h16.26v-0.95C140.43,107.91,140.36,106.01,140.36,101.81z"/>
		<path class="st1" d="M162.3,91.86l-2.57-1.22c-2.17-1.01-4.75-2.24-4.75-4.87c0-2.24,2.1-4,5.15-4c4.88,0,5.82,3.39,6.3,5.08h0.95
			v-7.51c-1.49-0.54-4.47-1.63-8.74-1.63c-7.79,0-11.99,4.34-11.99,9.48c0,4.74,3.46,6.64,5.29,7.65l2.84,1.35
			c2.37,1.22,5.35,2.78,5.35,5.76c0,3.39-3.11,4.67-5.96,4.67c-5.08,0-6.3-3.52-6.91-5.49h-1.02v8.06c2.57,0.81,4.94,1.56,9.21,1.56
			c5.35,0,8.33-1.76,9.82-3.05c2.1-1.83,3.32-4.61,3.32-7.32C168.6,94.84,163.93,92.6,162.3,91.86z"/>
		<path class="st1" d="M225.71,78.85h-12.06v0.95c0.75,0.13,2.85,0.47,2.85,2.84c0,0.75-0.34,1.56-0.68,2.37l-6.57,14.9l-6.23-14.9
			c-0.2-0.68-0.47-1.56-0.47-2.23c0-2.37,1.83-2.78,2.71-2.98v-0.95h-15.64v0.95c1.76,0.34,2.57,0.81,3.66,3.05l1.55,3.32
			l-6.23,13.75l-6.03-14.7c-0.27-0.67-0.61-1.56-0.61-2.44c0-1.76,1.02-2.71,2.78-2.98v-0.95h-15.71v0.95
			c2.58,0.88,2.91,1.42,4.4,4.87l11.11,25.54h3.99l8.6-18.42l8.13,18.42h4l11.98-25.54c1.43-3.04,1.83-3.99,4.47-4.87V78.85z"/>
		<path class="st1" d="M76.08,63.25l4.5,10.35h1.62l3.49-7.46l3.29,7.46h1.62l4.86-10.35c0.58-1.23,0.74-1.62,1.81-1.97v-0.38h-4.89
			v0.38c0.3,0.05,1.15,0.19,1.15,1.15c0,0.3-0.14,0.63-0.27,0.96l-2.66,6.04l-2.52-6.04c-0.08-0.27-0.2-0.63-0.2-0.9
			c0-0.96,0.74-1.13,1.1-1.21v-0.38h-6.34v0.38c0.71,0.14,1.04,0.33,1.48,1.23l0.63,1.35l-2.52,5.57l-2.44-5.96
			c-0.11-0.27-0.25-0.63-0.25-0.99c0-0.71,0.41-1.1,1.12-1.21v-0.38h-6.37v0.38C75.34,61.63,75.47,61.85,76.08,63.25z"/>
		<path class="st1" d="M238.28,102.35V77.09l-13,6.37l0.4,0.74c4-0.2,4.2,1.62,4.2,5.15v12.6c0,3.86,0,5.49-4.06,6.71v0.95h16.66
			v-0.95C238.82,107.77,238.28,106.82,238.28,102.35z"/>
		<path class="st1" d="M270.6,99.44c-2.03,2.03-4.74,4.74-9.89,4.74c-7.92,0-10.63-6.64-10.63-11.72c0-5.41,2.71-10.83,9.28-10.83
			c6.09,0,7.58,4.27,8.67,7.24h0.95l1.56-7.72c-1.49-1.02-5.15-3.45-11.17-3.45c-10.29,0-16.86,7.79-16.86,17.34
			c0,6.77,3.93,15.71,14.9,15.71c5.21,0,10.3-1.83,14.22-10.77L270.6,99.44z"/>
		<path class="st1" d="M304.73,104.86L291.8,91.25l9.48-8.47c2.64-2.3,2.7-2.37,4.6-2.98v-0.95h-13.2v0.95
			c0.61,0.13,1.9,0.41,1.9,1.62c0,0.88-0.61,1.49-1.9,2.78l-9.48,8.33V60.98l-13.07,6.7l0.41,0.81c0.48-0.13,0.88-0.2,1.29-0.2
			c2.91,0,2.98,2.64,2.98,5.35v29.6c0,2.91-0.34,4.81-3.86,5.42v0.95h16.12v-0.95c-3.79-0.81-3.86-2.91-3.86-6.03v-8.87l10.5,11.1
			c3.38,3.52,4.67,4.68,10.56,4.74h4.87v-0.95C307.38,107.91,306.02,106.35,304.73,104.86z"/>
		<path class="st1" d="M169.79,73.02c-1.13-0.25-1.65-0.52-1.65-2.4V57.71l13.65,15.86h1.65V56.75c0-1.54,0.25-2.12,1.66-2.4v-0.41
			h-5.49v0.41c1.55,0.27,1.71,0.97,1.71,2.51v10.57l-11.53-13.49h-5.49v0.41c0.44,0.05,1.16,0.14,1.52,0.94
			c0.16,0.39,0.16,0.8,0.16,1.35v13.99c0,0.94-0.08,1.49-0.49,1.93c-0.36,0.36-0.77,0.41-1.19,0.46v0.39h5.49V73.02z"/>
		<path class="st1" d="M46.32,73.02c-1.13-0.25-1.65-0.52-1.65-2.4V57.71l13.65,15.86h1.65V56.75c0-1.54,0.25-2.12,1.66-2.4v-0.41
			h-5.49v0.41c1.54,0.27,1.71,0.97,1.71,2.51v10.57L46.32,53.94h-5.49v0.41c0.44,0.05,1.16,0.14,1.52,0.94
			c0.16,0.39,0.16,0.8,0.16,1.35v13.99c0,0.94-0.08,1.49-0.5,1.93c-0.36,0.36-0.77,0.41-1.19,0.46v0.39h5.49V73.02z"/>
		<path class="st1" d="M186.9,72.01c1.54,1.63,3.42,1.87,4.96,1.87c5.11,0,7.12-3.56,7.12-6.79c0-3.48-2.23-6.68-6.87-6.68
			c-4.36,0-7.04,3.12-7.04,6.81C185.08,69.11,185.77,70.84,186.9,72.01z M189.71,63.15c0.44-0.58,1.21-1.13,2.21-1.13
			c0.83,0,1.57,0.39,2.07,0.91c0.72,0.77,1.32,2.43,1.32,4.47c0,0.94-0.08,3.59-1.74,4.58c-0.39,0.22-0.86,0.33-1.3,0.33
			c-2.54,0-3.53-3.06-3.53-5.52C188.75,65.35,189.05,64.01,189.71,63.15z"/>
		<path class="st1" d="M200.52,64.2v4.83c0,1.02,0.05,2.23,0.88,3.28c0.36,0.47,1.38,1.57,3.67,1.57c2.23,0,3.86-1.18,4.8-2.45
			c0.2,0.77,0.55,1.6,1.82,2.54l3.03-2.26l-0.17-0.27c-1.43-0.28-1.43-1.3-1.43-2.65v-8.36l-5.08,1.02v0.38
			c1.35,0.19,1.63,0.72,1.63,2.04v4.44c0,0.58-0.03,1.41-0.67,2.15c-0.5,0.58-1.33,0.99-2.4,0.99c-1.27,0-2.12-0.63-2.45-1.66
			c-0.14-0.44-0.19-0.88-0.19-1.49v-7.89l-4.99,1.02v0.38C200.38,62.02,200.52,62.74,200.52,64.2z"/>
		<path class="st1" d="M234.01,73.88c3.5,0,4.91-1.98,6.04-4.3l-0.42-0.27c-0.71,0.66-2.06,1.93-4.68,1.93
			c-1.38,0-3.39-0.41-4.2-2.62c-0.27-0.77-0.3-1.32-0.3-1.88h9.91c-0.08-1.3-0.33-2.59-1.02-3.7c-1.49-2.43-4-2.59-5.15-2.59
			c-4.47,0-6.79,3.42-6.79,6.79C227.39,70.46,229.46,73.88,234.01,73.88z M231.42,63.18c0.88-1.1,2.01-1.16,2.51-1.16
			c0.63,0,1.71,0.11,2.46,1.21c0.44,0.66,0.52,1.27,0.58,1.96h-6.46C230.68,64.56,230.87,63.84,231.42,63.18z"/>
		<path class="st1" d="M68.44,73.88c3.5,0,4.91-1.98,6.04-4.3l-0.42-0.27c-0.71,0.66-2.07,1.93-4.69,1.93c-1.38,0-3.4-0.41-4.2-2.62
			c-0.27-0.77-0.3-1.32-0.3-1.88h9.9c-0.08-1.3-0.33-2.59-1.02-3.7c-1.49-2.43-4-2.59-5.16-2.59c-4.47,0-6.79,3.42-6.79,6.79
			C61.82,70.46,63.89,73.88,68.44,73.88z M65.85,63.18c0.88-1.1,2.01-1.16,2.51-1.16c0.63,0,1.71,0.11,2.45,1.21
			c0.44,0.66,0.52,1.27,0.58,1.96h-6.45C65.1,64.56,65.29,63.84,65.85,63.18z"/>
		<path class="st1" d="M244.8,73.85c2.18,0,3.31-1.13,4.22-2.04c0.3,0.96,0.66,1.49,1.62,2.12l3.09-2.32l-0.19-0.33
			c-1.44-0.61-1.46-1.24-1.46-2.81v-2.98c0-1.46,0-2.51-0.8-3.53c-1.16-1.49-3.12-1.57-4.11-1.57c-1.13,0-2.79,0.17-4.75,0.88
			l-0.44,2.92h0.44c0.39-0.47,0.8-0.97,1.52-1.41c0.77-0.47,1.71-0.72,2.54-0.72c0.83,0,1.68,0.28,2.04,0.99
			c0.14,0.3,0.19,0.63,0.19,0.91c0,1.33-1.35,1.77-2.67,2.13l-0.94,0.22c-1.3,0.33-4.28,1.1-4.28,3.97
			C240.82,71.76,241.74,73.85,244.8,73.85z M246.7,67.51c0.99-0.33,1.24-0.44,2.07-0.99v3.53c-1.21,1.43-2.45,1.54-2.75,1.54
			c-1.02,0-1.77-0.74-1.77-1.68C244.24,68.34,245.98,67.76,246.7,67.51z"/>
		<path class="st1" d="M254.8,64.2v4.83c0,1.02,0.06,2.23,0.88,3.28c0.36,0.47,1.38,1.57,3.67,1.57c2.24,0,3.87-1.18,4.8-2.45
			c0.2,0.77,0.55,1.6,1.82,2.54L269,71.7l-0.17-0.27c-1.43-0.28-1.43-1.3-1.43-2.65v-8.36l-5.08,1.02v0.38
			c1.35,0.19,1.63,0.72,1.63,2.04v4.44c0,0.58-0.03,1.41-0.66,2.15c-0.5,0.58-1.32,0.99-2.4,0.99c-1.27,0-2.12-0.63-2.45-1.66
			c-0.14-0.44-0.2-0.88-0.2-1.49v-7.89l-4.99,1.02v0.38C254.66,62.02,254.8,62.74,254.8,64.2z"/>
	</g>
	<g>
		<path class="st2" d="M124.13,64.5c-11.91,0.51-28.48,9.26-28.48,9.26s9.14-4.1,19.23-5.56c-0.85,0.94-1.26,1.96-1.06,2.93
			c0.51,2.46,5.84,3.99,10.49,3.03c1.33-0.28,2.52-0.8,3.63-1.22c-0.96,0.37-8.63-0.02-8.48-2.95c0.11-2.22,5.15-3.36,8.88-2.01
			c3.09,1.11,5.35,5.15,4.53,6.93c0.18-0.25,0.34-0.52,0.47-0.81C134.74,71.03,133.54,64.09,124.13,64.5z"/>
		<path class="st2" d="M162.41,67.22c-0.48-2.47-4.64-3.74-9.3-2.85c-1.98,0.38-3.75,1.22-5.13,2.01c-3.24,1.86-7.9,5.93-7.9,5.93
			c1.12-0.79,2.55-1.54,4.06-2.25c1.96-0.92,11.07-4.5,12.16-1.41c0.49,1.38-1.24,3.27-5.91,3.87c-1.25,0.16-2.87,0.09-3.73-0.34
			c1.64,1.27,4.77,1.77,8.16,1.12C159.49,72.41,162.88,69.68,162.41,67.22z"/>
	</g>
	<path class="st0" d="M134.97,13.21c0,0,8.33,7.77-14.96,35.61c0,0,17.54-14.61,28.38-11.71c0,0,4.27,0.99,8.03,6.85
		c3-6.97,5.5-14.68,3.31-21.46C159.71,22.49,152.58,13.21,134.97,13.21z"/>
	<path class="st3" d="M93.7,72.86c0,0,37.37-19.53,55.89-16.67c-7.25,10.88-15.39,18.82-15.39,18.82
		c11.75-7.87,18.94-15.97,23.26-23.44C134.18,42.33,93.7,72.86,93.7,72.86z"/>
	<path class="st3" d="M161.64,21.06c0,0-3.83-5.05-12.86-8.64c-0.48-3.14-1.28-5.87-2.19-8.29c0.49,2.14,0.58,5.21,0.37,7.61
		c-5.5-1.91-12.69-3.21-21.83-2.73c0,0,19.62,9.17-20.13,52.29c0,0,32.55-22.32,43.39-19.42c0,0,4.66,0.65,9.43,8.68
		C166.59,34.1,161.64,21.06,161.64,21.06z M156.41,43.95c-3.76-5.87-8.03-6.85-8.03-6.85C137.54,34.21,120,48.81,120,48.81
		c23.3-27.84,14.96-35.61,14.96-35.61c17.61,0,24.75,9.28,24.75,9.28C161.91,29.27,159.41,36.98,156.41,43.95z"/>
	<path class="st3" d="M145.08,4.95c-10.3-1.48-16.02,1.64-16.66,2c10.77,0.3,12.98,1.44,16.76,2.41
		C145.45,7.92,145.08,4.95,145.08,4.95z"/>
</g>
</svg>
