<?xml version="1.0" encoding="utf-8"?>
<!-- Generator: Adobe Illustrator 23.1.0, SVG Export Plug-In . SVG Version: 6.00 Build 0)  -->
<svg version="1.0" id="Layer_1" xmlns="http://www.w3.org/2000/svg" xmlns:xlink="http://www.w3.org/1999/xlink" x="0px" y="0px"
	 viewBox="0 0 150.4 64.1" style="enable-background:new 0 0 150.4 64.1;" xml:space="preserve">
<style type="text/css">
	.st0{fill:#00403B;}
	.st1{fill:#1266AC;}
	.st2{fill:#881211;}
</style>
<g id="g10" transform="matrix(1.25,0,0,-1.25,0,190.825)">
	<g id="g12" transform="scale(0.1,0.1)">
		<g id="g14">
			<g>
				<g id="g16">
					<path id="path22" class="st0" d="M840.4,1296.3l17.7-41.5h6.4l19.2,41.5c2.3,4.7,3.2,6.1,6.5,6.5v1.6h-18.9v-1.6
						c1.3-0.1,4.5-0.5,4.5-4.2c0-1.3-0.7-3.3-1.1-4.2l-10.3-23.5l-9.5,24.2c-0.4,1.1-1,2.5-1,3.5c0,3.3,2.9,3.9,4.1,4.1v1.6h-24.4
						v-1.6C837,1302.4,838.6,1300.5,840.4,1296.3"/>
					<path id="path24" class="st0" d="M104.8,1142.2c-8.1-6.1-20.8-7.6-31.3-7.6c-18.4,0-18.7,10.5-18.7,23.4v45.2H73
						c8.4,0,18.9-0.3,28.7-6.3c5-3.1,14.7-11.6,14.7-28.9C116.3,1155,110.5,1146.6,104.8,1142.2z M54.8,1281.5h11
						c10.8,0,19.2-0.3,26.6-3.4c10.5-4.7,15-13.9,15-26.3c0-23.7-20.8-28.9-38.6-28.9H54.8C54.8,1222.9,54.8,1281.5,54.8,1281.5z
						 M106.9,1215.8c20,5.3,37.6,16.8,37.6,41.5c0,15.5-6.8,31.3-25,38.7c-10.3,4.2-22.9,5-39.2,5H3v-4c16-2.1,16-11.3,16-25v-128.8
						c0-14.5-1.8-21.3-16-23.9v-3.9h79.4c14.2,0,32.3,0,47.8,9.5c12.1,7.4,23.4,21.6,23.4,42.1
						C153.7,1195.8,132.1,1210.5,106.9,1215.8"/>
					<path id="path26" class="st0" d="M201,1218.9v22.6l-50.7-26.5l1.3-2.9c16.6,0,16.8-12.9,16.8-26.3v-38.9c0-5-0.3-12.1-2.1-16.8
						c-3.4-7.6-9.5-9.7-13.4-11v-3.7H217v3.7c-14.5,5.2-16,8.4-16,27.9v36c0,6.3,0,13.9,5.3,21.3c4.7,6.6,11.8,10.5,20.5,10.5
						c11.6,0,16.3-7.4,19.5-12.9h3.2l5.5,35.2c-2.9,1-7.9,2.9-15.2,2.9C219.6,1240,209.1,1228.1,201,1218.9"/>
					<path id="path28" class="st0" d="M394.4,1159.5v79.6l-48.4-9.7v-3.7c12.9-1.8,15.5-6.8,15.5-19.4V1164c0-5.5-0.3-13.4-6.3-20.5
						c-4.7-5.5-12.6-9.5-22.9-9.5c-12.1,0-20.2,6-23.4,15.8c-1.3,4.2-1.8,8.4-1.8,14.2v75.2l-47.6-9.7v-3.7
						c13.4-1.8,14.7-8.7,14.7-22.6v-46c0-9.7,0.5-21.3,8.4-31.3c3.4-4.5,13.1-15,35-15c21.3,0,36.8,11.3,45.7,23.4
						c1.8-7.4,5.3-15.2,17.3-24.2l28.9,21.6l-1.6,2.6C394.4,1136.9,394.4,1146.6,394.4,1159.5"/>
					<path id="path30" class="st0" d="M547.9,1145.6v45.2c0,11.6-0.3,23.4-8.1,33.4c-5.8,7.6-17.3,15-34.4,15
						c-22.6,0-35.8-12.4-44.4-20.5v22.9l-51-26.5l1.8-3.2c16-0.5,16.3-8.9,16.3-25.8v-40c0-13.1-0.3-24.7-15.8-27.1v-3.7h63.6
						l-0.3,3.7c-14.2,4-14.7,9.7-14.7,23.9v45c0,6.3,0.3,15.2,9.5,22.4c4.2,3.1,10.2,5.8,18.7,5.8c25.8,0,26-21.6,26-28.1v-45
						c0-13.7-0.3-20.8-14.5-23.9v-3.7h63.1v3.7C548.1,1121.9,547.9,1129.3,547.9,1145.6"/>
					<path id="path32" class="st0" d="M633,1184.2l-10,4.7c-8.4,3.9-18.4,8.7-18.4,18.9c0,8.7,8.2,15.5,20,15.5
						c18.9,0,22.6-13.1,24.4-19.7h3.7v29.2c-5.8,2.1-17.3,6.3-33.9,6.3c-30.2,0-46.5-16.8-46.5-36.8c0-18.4,13.4-25.8,20.5-29.7
						l11-5.3c9.2-4.7,20.8-10.8,20.8-22.3c0-13.1-12.1-18.1-23.1-18.1c-19.7,0-24.4,13.7-26.8,21.3h-3.9v-31.3
						c10-3.2,19.2-6.1,35.8-6.1c20.8,0,32.3,6.8,38.1,11.8c8.1,7.1,12.9,17.9,12.9,28.4C657.5,1172.6,639.4,1181.3,633,1184.2"/>
					<path id="path34" class="st0" d="M879.2,1234.7h-46.8v-3.7c2.9-0.5,11.1-1.8,11.1-11c0-2.9-1.3-6.1-2.6-9.2l-25.5-57.8
						l-24.2,57.8c-0.8,2.6-1.8,6.1-1.8,8.7c0,9.2,7.1,10.8,10.5,11.6v3.7h-60.7v-3.7c6.8-1.3,10-3.1,14.2-11.8l6-12.9l-24.2-53.4
						l-23.4,57.1c-1.1,2.6-2.4,6-2.4,9.5c0,6.8,4,10.5,10.8,11.6v3.7h-61v-3.7c10-3.4,11.3-5.5,17.1-18.9l43.1-99.1h15.5l33.4,71.5
						l31.6-71.5h15.5l46.5,99.1c5.5,11.8,7.1,15.5,17.4,18.9V1234.7"/>
					<path id="path36" class="st0" d="M298.3,1295.3l17.5-40.2h6.3l13.5,29l12.8-29h6.3l18.8,40.2c2.2,4.8,2.9,6.3,7,7.7v1.5h-19
						v-1.5c1.2-0.2,4.5-0.7,4.5-4.5c0-1.2-0.5-2.4-1.1-3.7l-10.3-23.4l-9.8,23.4c-0.3,1.1-0.8,2.4-0.8,3.5c0,3.7,2.9,4.4,4.3,4.7
						v1.5h-24.6v-1.5c2.8-0.5,4.1-1.3,5.8-4.8l2.4-5.2l-9.8-21.6l-9.5,23.1c-0.4,1.1-1,2.4-1,3.8c0,2.8,1.6,4.3,4.4,4.7v1.5h-24.7
						v-1.5C295.5,1301.5,296,1300.7,298.3,1295.3"/>
					<path id="path38" class="st0" d="M928,1143.5v98l-50.5-24.7l1.6-2.9c15.5,0.8,16.3-6.3,16.3-20V1145c0-15,0-21.3-15.8-26v-3.7
						h64.7v3.7C930.1,1122.4,928,1126.1,928,1143.5"/>
					<path id="path40" class="st0" d="M1053.5,1154.8c-7.9-7.9-18.4-18.4-38.4-18.4c-30.8,0-41.3,25.8-41.3,45.5
						c0,21,10.5,42.1,36,42.1c23.7,0,29.4-16.6,33.7-28.1h3.7l6,30c-5.8,3.9-20,13.4-43.4,13.4c-40,0-65.5-30.2-65.5-67.3
						c0-26.3,15.2-61,57.8-61c20.2,0,40,7.1,55.2,41.8L1053.5,1154.8"/>
					<path id="path42" class="st0" d="M1185.9,1133.7l-50.2,52.8l36.8,32.9c10.2,8.9,10.5,9.2,17.9,11.6v3.7h-51.3v-3.7
						c2.4-0.5,7.4-1.6,7.4-6.3c0-3.4-2.4-5.8-7.4-10.8l-36.8-32.3v122.5l-50.7-26l1.6-3.2c1.8,0.5,3.4,0.8,5,0.8
						c11.3,0,11.6-10.2,11.6-20.8V1140c0-11.3-1.3-18.7-15-21v-3.7h62.6v3.7c-14.7,3.2-15,11.3-15,23.4v34.4l40.7-43.1
						c13.1-13.7,18.1-18.1,41-18.4h18.9v3.7C1196.2,1121.9,1190.9,1128,1185.9,1133.7"/>
					<path id="path44" class="st0" d="M662.1,1257.3c-4.4,1-6.4,2-6.4,9.3v50.1l53-61.6h6.4v65.3c0,6,1,8.2,6.4,9.3v1.6h-21.3v-1.6
						c6-1.1,6.6-3.7,6.6-9.7v-41l-44.8,52.4h-21.3v-1.6c1.7-0.2,4.5-0.5,5.9-3.6c0.6-1.5,0.6-3.1,0.6-5.2v-54.3
						c0-3.6-0.3-5.8-1.9-7.5c-1.4-1.4-3-1.6-4.6-1.8v-1.5h21.3L662.1,1257.3"/>
					<path id="path46" class="st0" d="M182.8,1257.3c-4.4,1-6.4,2-6.4,9.3v50.1l53-61.6h6.4v65.3c0,6,1,8.2,6.4,9.3v1.6h-21.3v-1.6
						c6-1.1,6.6-3.7,6.6-9.7v-41l-44.8,52.4h-21.3v-1.6c1.7-0.2,4.5-0.5,5.9-3.6c0.6-1.5,0.6-3.1,0.6-5.2v-54.3
						c0-3.6-0.3-5.8-1.9-7.5c-1.4-1.4-3-1.6-4.6-1.8v-1.5h21.3L182.8,1257.3"/>
					<path id="path48" class="st0" d="M739.5,1295.7c1.7,2.2,4.7,4.4,8.6,4.4c3.2,0,6.1-1.5,8-3.5c2.8-3,5.1-9.4,5.1-17.3
						c0-3.6-0.3-13.9-6.7-17.8c-1.5-0.9-3.3-1.3-5-1.3c-9.9,0-13.7,11.9-13.7,21.4C735.7,1287.1,736.9,1292.3,739.5,1295.7
						L739.5,1295.7z M728.5,1261.3c6-6.3,13.3-7.3,19.3-7.3c19.8,0,27.6,13.8,27.6,26.3c0,13.5-8.7,25.9-26.7,25.9
						c-16.9,0-27.3-12.1-27.3-26.4C721.5,1272.5,724.2,1265.8,728.5,1261.3"/>
					<path id="path50" class="st0" d="M781.4,1291.6v-18.7c0-4,0.2-8.7,3.4-12.7c1.4-1.8,5.4-6.1,14.2-6.1c8.7,0,15,4.6,18.6,9.5
						c0.8-3,2.2-6.2,7.1-9.8l11.8,8.8l-0.6,1.1c-5.6,1.1-5.6,5-5.6,10.3v32.4l-19.7-4v-1.5c5.2-0.7,6.3-2.8,6.3-7.9v-17.2
						c0-2.3-0.1-5.5-2.6-8.4c-1.9-2.3-5.2-3.9-9.3-3.9c-4.9,0-8.2,2.5-9.5,6.4c-0.5,1.7-0.8,3.4-0.8,5.8v30.6l-19.4-4v-1.5
						C780.9,1300,781.4,1297.3,781.4,1291.6"/>
					<path id="path52" class="st0" d="M901.4,1295.5c3.4,4.3,7.8,4.5,9.7,4.5c2.4,0,6.6-0.4,9.5-4.7c1.7-2.6,2-4.9,2.2-7.6h-25.1
						C898.5,1290.2,899.2,1293,901.4,1295.5z M911.4,1254c13.6,0,19.1,7.7,23.4,16.7l-1.6,1.1c-2.8-2.6-8-7.5-18.2-7.5
						c-5.3,0-13.2,1.6-16.3,10.2c-1.1,3-1.2,5.1-1.2,7.3h38.5c-0.3,5-1.3,10.1-4,14.4c-5.8,9.4-15.5,10.1-20,10.1
						c-17.4,0-26.3-13.3-26.3-26.3C885.7,1267.3,893.8,1254,911.4,1254"/>
					<path id="path54" class="st0" d="M258.6,1295.5c3.4,4.3,7.8,4.5,9.7,4.5c2.5,0,6.6-0.4,9.5-4.7c1.7-2.6,2-4.9,2.2-7.6h-25.1
						C255.7,1290.2,256.5,1293,258.6,1295.5z M268.7,1254c13.6,0,19.1,7.7,23.5,16.7l-1.6,1.1c-2.8-2.6-8-7.5-18.2-7.5
						c-5.4,0-13.2,1.6-16.3,10.2c-1.1,3-1.2,5.1-1.2,7.3h38.4c-0.3,5-1.3,10.1-4,14.4c-5.8,9.4-15.5,10.1-20,10.1
						c-17.4,0-26.3-13.3-26.3-26.3C243,1267.3,251,1254,268.7,1254"/>
					<path id="path56" class="st0" d="M960.7,1278.7c3.9,1.3,4.8,1.7,8,3.8v-13.7c-4.7-5.6-9.5-6-10.7-6c-4,0-6.9,2.9-6.9,6.5
						C951.1,1275.5,957.9,1277.8,960.7,1278.7z M953.3,1254.1c8.5,0,12.8,4.4,16.4,7.9c1.2-3.7,2.6-5.8,6.3-8.2l12,9l-0.8,1.3
						c-5.6,2.4-5.7,4.8-5.7,10.9v11.6c0,5.7,0,9.8-3.1,13.7c-4.5,5.8-12.1,6.1-16,6.1c-4.4,0-10.8-0.6-18.4-3.4l-1.7-11.3h1.7
						c1.5,1.8,3.1,3.8,5.9,5.5c3,1.8,6.6,2.8,9.9,2.8c3.2,0,6.5-1.1,7.9-3.9c0.5-1.2,0.7-2.5,0.7-3.5c0-5.1-5.2-6.9-10.4-8.3
						l-3.6-0.9c-5-1.3-16.6-4.3-16.6-15.4C937.9,1262.2,941.4,1254.1,953.3,1254.1"/>
					<path id="path58" class="st0" d="M992.1,1291.6v-18.7c0-4,0.2-8.7,3.4-12.7c1.4-1.8,5.4-6.1,14.2-6.1c8.7,0,15,4.6,18.6,9.5
						c0.8-3,2.1-6.2,7.1-9.8l11.8,8.8l-0.6,1.1c-5.6,1.1-5.6,5-5.6,10.3v32.4l-19.7-4v-1.5c5.2-0.7,6.3-2.8,6.3-7.9v-17.2
						c0-2.3-0.1-5.5-2.6-8.4c-1.9-2.3-5.1-3.9-9.3-3.9c-4.9,0-8.2,2.5-9.5,6.4c-0.5,1.7-0.8,3.4-0.8,5.8v30.6l-19.4-4v-1.5
						C991.6,1300,992.1,1297.3,992.1,1291.6"/>
					<path id="path60" class="st1" d="M484.9,1290.4c-46.2-2-110.6-35.9-110.6-35.9s35.5,15.9,74.6,21.6c-3.3-3.6-4.9-7.6-4.1-11.4
						c2-9.5,22.7-15.5,40.7-11.8c5.2,1.1,9.8,3.1,14.1,4.8c-3.7-1.4-33.5,0.1-32.9,11.5c0.4,8.6,20,13,34.5,7.8
						c12-4.3,20.8-20,17.6-26.9c0.7,1,1.3,2,1.8,3.1C526.1,1265.1,521.4,1292,484.9,1290.4"/>
					<path id="path62" class="st1" d="M633.5,1279.9c-1.8,9.6-18,14.5-36.1,11c-7.7-1.5-14.5-4.7-19.9-7.8
						c-12.6-7.2-30.7-23-30.7-23c4.3,3.1,9.9,6,15.8,8.7c7.6,3.6,43,17.5,47.2,5.5c1.9-5.4-4.8-12.7-22.9-15
						c-4.9-0.6-11.1-0.4-14.5,1.3c6.4-4.9,18.5-6.9,31.7-4.3C622.1,1259.7,635.3,1270.3,633.5,1279.9"/>
					<path id="path64" class="st2" d="M366.8,1258c0,0,145.1,75.8,217,64.7c-28.1-42.2-59.7-73.1-59.7-73.1
						c45.6,30.5,73.5,62,90.3,91C523.9,1376.5,366.8,1258,366.8,1258"/>
					<path id="path66" class="st2" d="M610.2,1370.2c-14.6,22.8-31.2,26.6-31.2,26.6c-42.1,11.2-110.2-45.5-110.2-45.5
						c90.4,108.1,58.1,138.2,58.1,138.2c68.4,0,96.1-36,96.1-36C631.5,1427.2,621.8,1397.2,610.2,1370.2L610.2,1370.2z M630.5,1459
						c0,0-14.9,19.6-49.9,33.5c-1.9,12.2-5,22.8-8.5,32.2c1.9-8.3,2.3-20.2,1.4-29.5c-21.3,7.4-49.3,12.5-84.8,10.6
						c0,0,76.2-35.6-78.1-203c0,0,126.4,86.6,168.4,75.4c0,0,18.1-2.5,36.6-33.7C649.7,1408.4,630.5,1459,630.5,1459"/>
					<path id="path68" class="st2" d="M565.9,1521.6c-40,5.8-61.9-6.3-64.4-7.8c41.8-1.1,50.1-5.6,64.8-9.3
						C567.3,1510,565.9,1521.6,565.9,1521.6"/>
					<path id="path70" class="st0" d="M212.8,1017.2c-6.8-2.4-13.7-3.5-20.9-3.5c-27.3,0-34.1,18.1-34.1,29.4
						c0,18.7,14.9,30.8,35.9,30.8c6.4,0,12.8-1,19.1-2.6v-13.6h-1.5c-2.2,7.3-9.3,8.4-15.5,8.4c-13.3,0-22.5-7.9-22.5-21.5
						c0-13.4,8.6-22.9,22.2-22.9c6.1,0,14.2,2,15.8,8.8h1.5V1017.2"/>
					<path id="path72" class="st0" d="M347.4,1056.8l-7.5-18.1h14.8L347.4,1056.8z M357.8,1015v1.4c1.9,0.3,3.7,1.2,3.7,3.6
						c0,1.3-0.4,2.4-0.9,3.7l-2.9,7.5h-21.4l-3-7.7c-0.6-1.5-0.9-2.8-0.9-3.6c0-2.3,2-3.2,3.9-3.5v-1.4h-18.3v1.4
						c3,0.4,4.2,1.7,6.6,7.3l21.4,49.2h9.6l19.8-47.8c2.6-6.3,3.3-7.5,7.2-8.6v-1.4H357.8"/>
					<path id="path74" class="st0" d="M551.4,1071.1c-4.1-0.7-5.1-2.3-5.1-6.4V1015h-8.2l-36.9,43.7v-35.2c0-4.2,0.6-6.4,5-7.1v-1.4
						h-18.2v1.4c4.5,0.6,5.1,2.5,5.1,6.8v42.1c0,3.4-1.5,5.4-5.1,5.8v1.4h20.1l30.1-36.4v29.1c0,3.7-1.1,5.3-5,5.8v1.5h18.2V1071.1"
						/>
					<path id="path76" class="st0" d="M683.7,1056.8l-7.5-18.1h14.8L683.7,1056.8L683.7,1056.8z M694.1,1015v1.4
						c1.9,0.3,3.8,1.2,3.8,3.6c0,1.3-0.4,2.4-0.9,3.7l-2.9,7.5h-21.4l-3-7.7c-0.6-1.5-0.9-2.8-0.9-3.6c0-2.3,2-3.2,3.9-3.5v-1.4
						h-18.3v1.4c3,0.4,4.2,1.7,6.6,7.3l21.4,49.2h9.6l19.8-47.8c2.6-6.3,3.3-7.5,7.2-8.6v-1.4H694.1"/>
					<path id="path78" class="st0" d="M844.6,1029c0-4.9,1.8-6.1,6.4-6.1c13.5,0,19.5,10.1,19.5,21.2c0,13-6.9,20.5-20,20.5h-6
						C844.6,1064.6,844.6,1029,844.6,1029z M829.5,1065c0,3.8-1.1,5.7-5,6.2v1.4h32.1c10.3,0,19.7-3.3,25.3-12.5
						c2.7-4.6,4.2-10.2,4.2-15.5c0-13.4-7.6-24.5-20.6-28.2c-3.7-1.1-7.7-1.4-11.7-1.4h-29.4v1.4c4,0.7,5,2.5,5,6.4V1065"/>
					<path id="path80" class="st0" d="M1016.6,1056.8l-7.5-18.1h14.8L1016.6,1056.8z M1027,1015v1.4c1.9,0.3,3.7,1.2,3.7,3.6
						c0,1.3-0.4,2.4-0.9,3.7l-2.8,7.5h-21.4l-3-7.7c-0.6-1.5-0.9-2.8-0.9-3.6c0-2.3,2-3.2,3.9-3.5v-1.4h-18.3v1.4
						c3,0.4,4.2,1.7,6.6,7.3l21.4,49.2h9.6l19.8-47.8c2.6-6.3,3.3-7.5,7.2-8.6v-1.4H1027"/>
				</g>
			</g>
		</g>
	</g>
</g>
</svg>
