<svg width="61" height="60" viewBox="0 0 61 60" fill="none" xmlns="http://www.w3.org/2000/svg">
<g id="face-grin-hearts" clip-path="url(#clip0_578_13444)">
<path id="Vector" d="M54.875 30C54.875 23.5353 52.3069 17.3355 47.7357 12.7643C43.1645 8.19307 36.9647 5.625 30.5 5.625C24.0353 5.625 17.8355 8.19307 13.2643 12.7643C8.69307 17.3355 6.125 23.5353 6.125 30C6.125 36.4647 8.69307 42.6645 13.2643 47.2357C17.8355 51.8069 24.0353 54.375 30.5 54.375C36.9647 54.375 43.1645 51.8069 47.7357 47.2357C52.3069 42.6645 54.875 36.4647 54.875 30ZM0.5 30C0.5 22.0435 3.66071 14.4129 9.2868 8.7868C14.9129 3.16071 22.5435 0 30.5 0C38.4565 0 46.0871 3.16071 51.7132 8.7868C57.3393 14.4129 60.5 22.0435 60.5 30C60.5 37.9565 57.3393 45.5871 51.7132 51.2132C46.0871 56.8393 38.4565 60 30.5 60C22.5435 60 14.9129 56.8393 9.2868 51.2132C3.66071 45.5871 0.5 37.9565 0.5 30ZM41.457 36.1406C43.6484 35.625 45.6641 37.5469 44.4453 39.4336C41.5625 43.8984 36.3945 46.875 30.4883 46.875C24.582 46.875 19.4141 43.8984 16.5312 39.4336C15.3125 37.5469 17.3281 35.625 19.5195 36.1406C22.9062 36.9375 26.6094 37.3711 30.4883 37.3711C34.3672 37.3711 38.0703 36.9375 41.457 36.1406ZM25.7305 16.0664C27.8164 16.6289 29.0586 18.7734 28.4961 20.8477L26.457 28.4648C26.1875 29.4609 25.1562 30.0586 24.1602 29.7891L16.5312 27.75C14.4453 27.1875 13.2031 25.043 13.7656 22.9688C14.3281 20.8945 16.4727 19.6406 18.5469 20.2031L20.4336 20.707L20.9375 18.8203C21.5 16.7344 23.6445 15.4922 25.7188 16.0547L25.7305 16.0664ZM40.0625 18.832L40.5664 20.7188L42.4531 20.2148C44.5391 19.6523 46.6836 20.8945 47.2344 22.9805C47.7852 25.0664 46.5547 27.2109 44.4688 27.7617L36.8398 29.8008C35.8438 30.0703 34.8125 29.4727 34.543 28.4766L32.5039 20.8594C31.9414 18.7734 33.1836 16.6289 35.2695 16.0781C37.3555 15.5273 39.5 16.7578 40.0625 18.8438V18.832Z" fill="#777777"/>
</g>
<defs>
<clipPath id="clip0_578_13444">
<rect width="60" height="60" fill="white" transform="translate(0.5)"/>
</clipPath>
</defs>
</svg>
