<svg width="61" height="60" viewBox="0 0 61 60" fill="none" xmlns="http://www.w3.org/2000/svg">
<g id="face-tired" clip-path="url(#clip0_578_13440)">
<path id="Vector" d="M54.875 30C54.875 23.5353 52.3069 17.3355 47.7357 12.7643C43.1645 8.19307 36.9647 5.625 30.5 5.625C24.0353 5.625 17.8355 8.19307 13.2643 12.7643C8.69307 17.3355 6.125 23.5353 6.125 30C6.125 36.4647 8.69307 42.6645 13.2643 47.2357C17.8355 51.8069 24.0353 54.375 30.5 54.375C36.9647 54.375 43.1645 51.8069 47.7357 47.2357C52.3069 42.6645 54.875 36.4647 54.875 30ZM0.5 30C0.5 22.0435 3.66071 14.4129 9.2868 8.7868C14.9129 3.16071 22.5435 0 30.5 0C38.4565 0 46.0871 3.16071 51.7132 8.7868C57.3393 14.4129 60.5 22.0435 60.5 30C60.5 37.9565 57.3393 45.5871 51.7132 51.2132C46.0871 56.8393 38.4565 60 30.5 60C22.5435 60 14.9129 56.8393 9.2868 51.2132C3.66071 45.5871 0.5 37.9565 0.5 30ZM21.1836 37.5352C23.4805 35.4023 26.7266 33.75 30.5 33.75C34.2734 33.75 37.5195 35.4023 39.8164 37.5352C42.043 39.6211 43.625 42.4219 43.625 45C43.625 45.6328 43.3086 46.2188 42.7812 46.5703C42.2539 46.9219 41.5859 46.9688 41 46.7227L38.9844 45.8438C36.3125 44.6719 33.418 44.0742 30.5 44.0742C27.582 44.0742 24.6875 44.6836 22.0156 45.8438L20 46.7227C19.4258 46.9805 18.7461 46.9219 18.2188 46.5703C17.6914 46.2188 17.375 45.6328 17.375 45C17.375 42.4219 18.957 39.6211 21.1836 37.5352ZM16.1445 17.1914L26.6797 22.8047C27.9336 23.4727 27.9336 25.2773 26.6797 25.9453L16.1445 31.5586C15.2188 32.0508 14.0938 31.3828 14.0938 30.3281C14.0938 30 14.2109 29.6836 14.4219 29.4375L18.6406 24.375L14.4219 19.3125C14.2109 19.0664 14.0938 18.75 14.0938 18.4219C14.0938 17.3672 15.2188 16.6992 16.1445 17.1914ZM46.9062 18.4102C46.9062 18.7383 46.7891 19.0547 46.5781 19.3008L42.3594 24.3633L46.5781 29.4258C46.7891 29.6719 46.9062 29.9883 46.9062 30.3164C46.9062 31.3711 45.7812 32.0391 44.8555 31.5469L34.3203 25.9336C33.0664 25.2656 33.0664 23.4609 34.3203 22.793L44.8555 17.1797C45.7812 16.6875 46.9062 17.3555 46.9062 18.4102Z" fill="#777777"/>
</g>
<defs>
<clipPath id="clip0_578_13440">
<rect width="60" height="60" fill="white" transform="translate(0.5)"/>
</clipPath>
</defs>
</svg>
