<svg width="60" height="60" viewBox="0 0 60 60" fill="none" xmlns="http://www.w3.org/2000/svg">
<circle cx="30" cy="30" r="30" fill="#EFB300"/>
<path d="M54.375 30C54.375 23.5353 51.8069 17.3355 47.2357 12.7643C42.6645 8.19307 36.4647 5.625 30 5.625C23.5353 5.625 17.3355 8.19307 12.7643 12.7643C8.19307 17.3355 5.625 23.5353 5.625 30C5.625 36.4647 8.19307 42.6645 12.7643 47.2357C17.3355 51.8069 23.5353 54.375 30 54.375C36.4647 54.375 42.6645 51.8069 47.2357 47.2357C51.8069 42.6645 54.375 36.4647 54.375 30ZM0 30C0 22.0435 3.16071 14.4129 8.7868 8.7868C14.4129 3.16071 22.0435 0 30 0C37.9565 0 45.5871 3.16071 51.2132 8.7868C56.8393 14.4129 60 22.0435 60 30C60 37.9565 56.8393 45.5871 51.2132 51.2132C45.5871 56.8393 37.9565 60 30 60C22.0435 60 14.4129 56.8393 8.7868 51.2132C3.16071 45.5871 0 37.9565 0 30ZM40.957 36.1406C43.1484 35.625 45.1641 37.5469 43.9453 39.4336C41.0625 43.8984 35.8945 46.875 29.9883 46.875C24.082 46.875 18.9141 43.8984 16.0312 39.4336C14.8125 37.5469 16.8281 35.625 19.0195 36.1406C22.4062 36.9375 26.1094 37.3711 29.9883 37.3711C33.8672 37.3711 37.5703 36.9375 40.957 36.1406ZM25.2305 16.0664C27.3164 16.6289 28.5586 18.7734 27.9961 20.8477L25.957 28.4648C25.6875 29.4609 24.6562 30.0586 23.6602 29.7891L16.0312 27.75C13.9453 27.1875 12.7031 25.043 13.2656 22.9688C13.8281 20.8945 15.9727 19.6406 18.0469 20.2031L19.9336 20.707L20.4375 18.8203C21 16.7344 23.1445 15.4922 25.2188 16.0547L25.2305 16.0664ZM39.5625 18.832L40.0664 20.7188L41.9531 20.2148C44.0391 19.6523 46.1836 20.8945 46.7344 22.9805C47.2852 25.0664 46.0547 27.2109 43.9688 27.7617L36.3398 29.8008C35.3438 30.0703 34.3125 29.4727 34.043 28.4766L32.0039 20.8594C31.4414 18.7734 32.6836 16.6289 34.7695 16.0781C36.8555 15.5273 39 16.7578 39.5625 18.8438V18.832Z" fill="black"/>
<g clip-path="url(#clip0_895_69891)">
<path d="M31.7361 21.4271L34.1314 29.2779C34.2309 29.6037 34.4508 29.8802 34.747 30.0512C35.0431 30.2222 35.3926 30.2744 35.7244 30.1976L43.7211 28.3466C45.0651 28.0375 46.2187 27.1815 46.9077 25.9882L47.004 25.8214C48.1644 23.8114 47.7018 21.2593 45.9115 19.7848C44.7264 18.8092 43.1449 18.4673 41.6662 18.8635L41.122 19.0094L40.9761 18.4651C40.5799 16.9865 39.4931 15.7877 38.0557 15.2492C35.8836 14.436 33.442 15.3114 32.2815 17.3214L32.1853 17.4882C31.4963 18.6815 31.3318 20.1086 31.7361 21.4271Z" fill="#AA1F2E"/>
</g>
<g clip-path="url(#clip1_895_69891)">
<path d="M16.3558 28.4833L24.3525 30.3343C24.6844 30.4111 25.0338 30.3589 25.33 30.1879C25.6261 30.0169 25.8461 29.7404 25.9455 29.4146L28.3408 21.5638C28.7451 20.2453 28.5806 18.8182 27.8917 17.6249L27.7954 17.4581C26.6349 15.4482 24.1934 14.5728 22.0212 15.3859C20.5839 15.9244 19.497 17.1232 19.1008 18.6018L18.955 19.1461L18.4107 19.0002C16.9321 18.604 15.3505 18.9459 14.1654 19.9215C12.3752 21.396 11.9125 23.9482 13.0729 25.9581L13.1692 26.1249C13.8582 27.3182 15.0119 28.1742 16.3558 28.4833Z" fill="#AA1F2E"/>
</g>
<defs>
<clipPath id="clip0_895_69891">
<rect width="17" height="17" fill="white" transform="translate(35.3545 12) rotate(30)"/>
</clipPath>
<clipPath id="clip1_895_69891">
<rect width="17" height="17" fill="white" transform="translate(10 20.6367) rotate(-30)"/>
</clipPath>
</defs>
</svg>
