<svg width="61" height="60" viewBox="0 0 61 60" fill="none" xmlns="http://www.w3.org/2000/svg">
<g id="face-meh" clip-path="url(#clip0_578_13442)">
<path id="Vector" d="M54.875 30C54.875 36.4647 52.3069 42.6645 47.7357 47.2357C43.1645 51.8069 36.9647 54.375 30.5 54.375C24.0353 54.375 17.8355 51.8069 13.2643 47.2357C8.69307 42.6645 6.125 36.4647 6.125 30C6.125 23.5353 8.69307 17.3355 13.2643 12.7643C17.8355 8.19307 24.0353 5.625 30.5 5.625C36.9647 5.625 43.1645 8.19307 47.7357 12.7643C52.3069 17.3355 54.875 23.5353 54.875 30ZM30.5 0C22.5435 0 14.9129 3.16071 9.2868 8.7868C3.66071 14.4129 0.5 22.0435 0.5 30C0.5 37.9565 3.66071 45.5871 9.2868 51.2132C14.9129 56.8393 22.5435 60 30.5 60C38.4565 60 46.0871 56.8393 51.7132 51.2132C57.3393 45.5871 60.5 37.9565 60.5 30C60.5 22.0435 57.3393 14.4129 51.7132 8.7868C46.0871 3.16071 38.4565 0 30.5 0ZM21.1719 28.125C22.1664 28.125 23.1203 27.7299 23.8235 27.0266C24.5268 26.3234 24.9219 25.3696 24.9219 24.375C24.9219 23.3804 24.5268 22.4266 23.8235 21.7234C23.1203 21.0201 22.1664 20.625 21.1719 20.625C20.1773 20.625 19.2235 21.0201 18.5202 21.7234C17.817 22.4266 17.4219 23.3804 17.4219 24.375C17.4219 25.3696 17.817 26.3234 18.5202 27.0266C19.2235 27.7299 20.1773 28.125 21.1719 28.125ZM43.6719 24.375C43.6719 23.3804 43.2768 22.4266 42.5735 21.7234C41.8703 21.0201 40.9164 20.625 39.9219 20.625C38.9273 20.625 37.9735 21.0201 37.2702 21.7234C36.567 22.4266 36.1719 23.3804 36.1719 24.375C36.1719 25.3696 36.567 26.3234 37.2702 27.0266C37.9735 27.7299 38.9273 28.125 39.9219 28.125C40.9164 28.125 41.8703 27.7299 42.5735 27.0266C43.2768 26.3234 43.6719 25.3696 43.6719 24.375ZM22.0625 38.4375C20.5039 38.4375 19.25 39.6914 19.25 41.25C19.25 42.8086 20.5039 44.0625 22.0625 44.0625H38.9375C40.4961 44.0625 41.75 42.8086 41.75 41.25C41.75 39.6914 40.4961 38.4375 38.9375 38.4375H22.0625Z" fill="#777777"/>
</g>
<defs>
<clipPath id="clip0_578_13442">
<rect width="60" height="60" fill="white" transform="translate(0.5)"/>
</clipPath>
</defs>
</svg>
